<svg width="20" height="20" viewBox="0 0 20 20" fill="none" xmlns="http://www.w3.org/2000/svg">
  <path d="M10 6.458a.937.937 0 0 0-.937.938.625.625 0 0 1-1.25 0 2.187 2.187 0 1 1 3.3 1.884 1.6 1.6 0 0 0-.387.306c-.086.101-.1.167-.1.206v1.041a.625.625 0 1 1-1.25 0V9.792c0-.422.184-.764.396-1.014a2.8 2.8 0 0 1 .705-.574A.937.937 0 0 0 10 6.458" fill="url(#a)"/>
  <path d="M10 14.167a.833.833 0 1 0 0-1.667.833.833 0 0 0 0 1.667" fill="url(#b)"/>
  <path fill-rule="evenodd" clip-rule="evenodd" d="M9.953 1.042h.095c1.924 0 3.431 0 4.608.158 1.204.162 2.153.5 2.9 1.245.745.746 1.083 1.696 1.244 2.9.159 1.176.159 2.684.159 4.607v.096c0 1.924 0 3.431-.159 4.607-.161 1.204-.5 2.154-1.245 2.9s-1.695 1.083-2.9 1.245c-1.176.158-2.683.158-4.607.158h-.095c-1.924 0-3.432 0-4.608-.158-1.204-.162-2.154-.5-2.9-1.245-.745-.746-1.083-1.696-1.245-2.9-.158-1.176-.158-2.683-.158-4.607v-.096c0-1.923 0-3.43.158-4.607.162-1.204.5-2.154 1.245-2.9.746-.745 1.696-1.083 2.9-1.245 1.176-.158 2.684-.158 4.608-.158M5.512 2.439c-1.066.143-1.708.415-2.183.89s-.747 1.117-.89 2.182c-.146 1.084-.147 2.507-.147 4.49 0 1.98.001 3.405.147 4.488.143 1.065.416 1.707.89 2.182s1.117.747 2.183.89c1.083.146 2.506.147 4.488.147s3.406 0 4.489-.147c1.065-.143 1.708-.415 2.182-.89.475-.475.748-1.117.89-2.182.146-1.084.148-2.507.148-4.489s-.002-3.405-.147-4.489c-.143-1.065-.416-1.707-.89-2.182s-1.118-.747-2.183-.89c-1.083-.146-2.507-.147-4.489-.147s-3.405.001-4.488.147" fill="url(#c)"/>
  <defs>
    <linearGradient id="a" x1="-1.599" y1="1.042" x2="19.811" y2="2.246" gradientUnits="userSpaceOnUse">
      <stop stop-color="#FF7000"/>
      <stop offset="1" stop-color="#E2985E"/>
      <stop offset="1" stop-color="#E2995F"/>
    </linearGradient>
    <linearGradient id="b" x1="-1.599" y1="1.042" x2="19.811" y2="2.246" gradientUnits="userSpaceOnUse">
      <stop stop-color="#FF7000"/>
      <stop offset="1" stop-color="#E2985E"/>
      <stop offset="1" stop-color="#E2995F"/>
    </linearGradient>
    <linearGradient id="c" x1="-1.599" y1="1.042" x2="19.811" y2="2.246" gradientUnits="userSpaceOnUse">
      <stop stop-color="#FF7000"/>
      <stop offset="1" stop-color="#E2985E"/>
      <stop offset="1" stop-color="#E2995F"/>
    </linearGradient>
  </defs>
</svg>
