<svg xmlns="http://www.w3.org/2000/svg" width="20" height="20" viewBox="0 0 20 20" fill="none">
  <path d="M10 6.458a.937.937 0 0 0-.938.938.625.625 0 1 1-1.25 0 2.188 2.188 0 1 1 3.3 1.883 1.6 1.6 0 0 0-.387.307c-.085.101-.1.167-.1.205v1.042a.625.625 0 0 1-1.25 0V9.791c0-.421.185-.763.397-1.014a2.8 2.8 0 0 1 .704-.574A.937.937 0 0 0 10 6.458m0 7.709a.833.833 0 1 0 0-1.667.833.833 0 0 0 0 1.666" fill="#1DA1F2"/>
  <path fill-rule="evenodd" clip-rule="evenodd" d="M9.952 1.042h.096c1.923 0 3.431 0 4.607.158 1.204.161 2.154.5 2.9 1.245.745.746 1.083 1.696 1.245 2.9.158 1.176.158 2.683.158 4.607v.096c0 1.923 0 3.43-.158 4.607-.162 1.204-.5 2.154-1.245 2.9-.746.745-1.696 1.083-2.9 1.245-1.176.158-2.684.158-4.607.158h-.096c-1.924 0-3.431 0-4.607-.158-1.204-.162-2.154-.5-2.9-1.245s-1.083-1.696-1.245-2.9c-.158-1.176-.158-2.684-.158-4.607v-.096c0-1.924 0-3.431.158-4.607.162-1.204.5-2.154 1.245-2.9S4.141 1.36 5.345 1.2c1.176-.159 2.683-.159 4.607-.158m-4.44 1.396c-1.066.144-1.708.416-2.183.89-.475.476-.747 1.118-.89 2.183-.146 1.083-.147 2.507-.147 4.489s.001 3.405.147 4.489c.143 1.065.415 1.707.89 2.182s1.117.747 2.182.89c1.084.146 2.507.147 4.489.147s3.405-.001 4.489-.147c1.065-.143 1.707-.415 2.182-.89s.747-1.117.89-2.182c.146-1.084.147-2.507.147-4.49 0-1.981-.001-3.405-.147-4.488-.143-1.065-.415-1.707-.89-2.182s-1.117-.747-2.182-.89c-1.084-.146-2.507-.147-4.489-.147s-3.405 0-4.489.146" fill="#1DA1F2"/>
</svg>
